# xmcd
#
# Track frame offsets:
#	182
#	15940
#	30882
#	47127
#	63140
#	77972
#	98180
#	117977
#	132832
#
# Disc length: 2097 seconds
#
# Revision: 1
# Processed by: cddbd v1.5.1PL0 Copyright (c) Steve Scherf et al.
# Submitted via: audiograbber 1.83.01
#
DISCID=64082f09
DTITLE=Patrick Victor et BWA Gayac - Goodbye mahe
DYEAR=1990
DGENRE=
TTITLE0=Zwe sa lanmisik
TTITLE1=Lewa sega
TTITLE2=Ton pa
TTITLE3=Tambour moutia
TTITLE4=Dan bouryar
TTITLE5=Koste pep l'océan endyen
TTITLE6=We came from africa
TTITLE7=Sa sega pou ou
TTITLE8=Goodbye Mahé
EXTD=
EXTT0=
EXTT1=
EXTT2=
EXTT3=
EXTT4=
EXTT5=
EXTT6=
EXTT7=
EXTT8=
PLAYORDER=
